<svg width="39" height="39" viewBox="0 0 39 39" fill="none" xmlns="http://www.w3.org/2000/svg">
<path d="M19.5002 22.9734C21.4185 22.9734 22.9736 21.4183 22.9736 19.4999C22.9736 17.5816 21.4185 16.0265 19.5002 16.0265C17.5818 16.0265 16.0267 17.5816 16.0267 19.4999C16.0267 21.4183 17.5818 22.9734 19.5002 22.9734Z" fill="#61DAFB"/>
<path d="M32.6931 13.7718C32.0228 13.5281 31.322 13.2843 30.5908 13.071C30.7736 12.3398 30.9259 11.6085 31.0478 10.9077C31.6876 6.88586 30.9869 4.05227 29.0369 2.9554C28.4579 2.62024 27.8181 2.4679 27.0869 2.4679C24.954 2.4679 22.2423 4.05227 19.5001 6.70305C16.7579 4.05227 14.0462 2.4679 11.9134 2.4679C11.1822 2.4679 10.5423 2.62024 9.96342 2.9554C8.01342 4.08274 7.31263 6.91633 7.95248 10.9077C8.07435 11.6085 8.2267 12.3398 8.40951 13.071C7.67826 13.2843 6.97748 13.4976 6.30717 13.7718C2.49857 15.2343 0.426697 17.2452 0.426697 19.4999C0.426697 21.7546 2.52904 23.7656 6.30717 25.2281C6.97748 25.4718 7.67826 25.7156 8.40951 25.9288C8.2267 26.6601 8.07435 27.3913 7.95248 28.0921C7.31263 32.114 8.01342 34.9476 9.96342 36.0445C10.5423 36.3796 11.1822 36.532 11.9134 36.532C14.0767 36.532 16.7884 34.9476 19.5001 32.2968C22.2423 34.9476 24.954 36.532 27.0869 36.532C27.8181 36.532 28.4579 36.3796 29.0369 36.0445C30.9869 34.9171 31.6876 32.0835 31.0478 28.0921C30.9259 27.3913 30.7736 26.6601 30.5908 25.9288C31.322 25.7156 32.0228 25.5023 32.6931 25.2281C36.5017 23.7656 38.5736 21.7546 38.5736 19.4999C38.5736 17.2452 36.5017 15.2343 32.6931 13.7718ZM28.1837 4.47883C29.4329 5.21008 29.8595 7.46477 29.3415 10.664C29.2501 11.3038 29.0978 11.9741 28.915 12.6749C27.3306 12.3093 25.6548 12.0656 23.8876 11.9132C22.8517 10.4507 21.7853 9.14055 20.7189 7.95227C22.9736 5.72805 25.2587 4.20461 27.1173 4.20461C27.5134 4.20461 27.879 4.29602 28.1837 4.47883ZM24.7712 22.5468C24.2228 23.5218 23.5829 24.4968 22.9126 25.4718C21.7853 25.5632 20.6579 25.5937 19.5001 25.5937C18.3119 25.5937 17.1845 25.5632 16.0876 25.4718C15.4173 24.4968 14.8079 23.5218 14.2595 22.5468C13.6806 21.5413 13.1322 20.5054 12.6447 19.4999C13.1322 18.4945 13.6806 17.4585 14.2595 16.4531C14.8079 15.4781 15.4478 14.5031 16.1181 13.5281C17.2454 13.4366 18.3728 13.4062 19.5306 13.4062C20.7189 13.4062 21.8462 13.4366 22.9431 13.5281C23.6134 14.5031 24.2228 15.4781 24.7712 16.4531C25.3501 17.4585 25.8986 18.4945 26.3861 19.4999C25.8681 20.5054 25.3501 21.5109 24.7712 22.5468ZM27.3001 21.5413C27.7572 22.6077 28.1228 23.6437 28.4579 24.6796C27.422 24.9234 26.3251 25.1062 25.1673 25.2585C25.5329 24.6796 25.929 24.0702 26.2642 23.4304C26.6298 22.7906 26.965 22.1507 27.3001 21.5413ZM19.5001 29.7984C18.7689 29.0062 18.0681 28.1531 17.3978 27.2695C18.0986 27.2999 18.7994 27.3304 19.5001 27.3304C20.2009 27.3304 20.9017 27.2999 21.6025 27.2695C20.9322 28.1531 20.2314 29.0062 19.5001 29.7984ZM13.8329 25.2281C12.6751 25.0757 11.5783 24.8929 10.5423 24.6491C10.8775 23.6437 11.2431 22.5773 11.7001 21.5109C12.0353 22.1202 12.3704 22.7601 12.7361 23.3695C13.1017 24.0398 13.4673 24.6187 13.8329 25.2281ZM11.7001 17.4585C11.2431 16.3921 10.8775 15.3562 10.5423 14.3202C11.5783 14.0765 12.6751 13.8937 13.8329 13.7413C13.4673 14.3202 13.0712 14.9296 12.7361 15.5695C12.3704 16.2093 12.0353 16.8491 11.7001 17.4585ZM19.5001 9.20149C20.2314 9.99368 20.9322 10.8468 21.6025 11.7304C20.9017 11.6999 20.2009 11.6695 19.5001 11.6695C18.7994 11.6695 18.0986 11.6999 17.3978 11.7304C18.0681 10.8468 18.7689 9.99368 19.5001 9.20149ZM26.2642 15.5999L25.1673 13.7718C26.3251 13.9241 27.422 14.107 28.4579 14.3507C28.1228 15.3562 27.7572 16.4226 27.3001 17.489C26.965 16.8491 26.6298 16.2093 26.2642 15.5999ZM9.65873 10.664C9.14076 7.46477 9.56732 5.21008 10.8165 4.47883C11.1212 4.29602 11.4869 4.20461 11.8829 4.20461C13.7111 4.20461 15.9962 5.69758 18.2814 7.95227C17.215 9.11008 16.1486 10.4507 15.1126 11.9132C13.3454 12.0656 11.6697 12.3398 10.0853 12.6749C9.90248 11.9741 9.7806 11.3038 9.65873 10.664ZM2.13295 19.4999C2.13295 18.0679 3.86967 16.5445 6.91654 15.4171C7.52592 15.1734 8.19623 14.9601 8.86654 14.7773C9.35404 16.3007 9.96341 17.9156 10.6947 19.5304C9.96341 21.1452 9.32357 22.7296 8.86654 24.2531C4.66185 23.0343 2.13295 21.2062 2.13295 19.4999ZM10.8165 34.521C9.56732 33.7898 9.14076 31.5351 9.65873 28.3359C9.75013 27.696 9.90248 27.0257 10.0853 26.3249C11.6697 26.6906 13.3454 26.9343 15.1126 27.0866C16.1486 28.5491 17.215 29.8593 18.2814 31.0476C16.0267 33.2718 13.7415 34.7952 11.8829 34.7952C11.4869 34.7952 11.1212 34.7038 10.8165 34.521ZM29.3415 28.3359C29.8595 31.5351 29.4329 33.7898 28.1837 34.521C27.879 34.7038 27.5134 34.7952 27.1173 34.7952C25.2892 34.7952 23.004 33.3023 20.7189 31.0476C21.7853 29.8898 22.8517 28.5491 23.8876 27.0866C25.6548 26.9343 27.3306 26.6601 28.915 26.3249C29.0978 27.0257 29.2197 27.696 29.3415 28.3359ZM32.0837 23.5827C31.4744 23.8265 30.804 24.0398 30.1337 24.2226C29.6462 22.6991 29.0369 21.0843 28.3056 19.4695C29.0369 17.8546 29.6767 16.2702 30.1337 14.7468C34.3384 15.9656 36.8673 17.7937 36.8673 19.4999C36.8673 20.932 35.1001 22.4554 32.0837 23.5827Z" fill="#61DAFB"/>
</svg>
