<svg width="39" height="39" viewBox="0 0 39 39" fill="none" xmlns="http://www.w3.org/2000/svg">
<g clip-path="url(#clip0_29_164)">
<path d="M6.90723 14.3203H37.2754V36.7666H6.90723V14.3203Z" fill="white"/>
<path d="M0.457031 19.4727V38.5156H38.543V0.429688H0.457031V19.4727ZM31.1482 17.9492C32.0604 18.1609 32.8895 18.638 33.5309 19.3203C33.8839 19.6879 34.1908 20.0972 34.4449 20.5391C34.4449 20.5878 32.7996 21.6999 31.7972 22.3215C31.7606 22.3459 31.6144 22.1874 31.4529 21.9467C31.2699 21.631 31.0099 21.3667 30.6971 21.1786C30.3844 20.9906 30.0291 20.8848 29.6644 20.8712C28.5096 20.792 27.7662 21.3983 27.7723 22.3946C27.763 22.6426 27.8198 22.8887 27.9368 23.1076C28.1897 23.6347 28.662 23.9485 30.1427 24.5884C32.8697 25.7614 34.0366 26.5353 34.7618 27.6352C35.5723 28.854 35.752 30.8223 35.2036 32.2787C34.5942 33.863 33.1012 34.9386 30.9898 35.2951C30.0254 35.4056 29.051 35.3954 28.0891 35.2646C26.615 35.0216 25.257 34.3138 24.2135 33.2445C23.8631 32.8576 23.1806 31.8491 23.2233 31.7759C23.3343 31.6931 23.4514 31.6187 23.5737 31.5535L24.9844 30.7735L26.0782 30.1398L26.3067 30.478C26.6925 31.0295 27.1833 31.4996 27.7509 31.8612C28.9697 32.5011 30.6333 32.4127 31.4559 31.6723C31.7321 31.401 31.9045 31.0415 31.9429 30.6562C31.9813 30.2709 31.8834 29.8844 31.6662 29.5639C31.3615 29.1404 30.7521 28.7839 29.0489 28.0405C27.0837 27.1934 26.2366 26.6694 25.4627 25.8345C24.9798 25.2835 24.6231 24.6336 24.4177 23.9302C24.2646 23.1266 24.2419 22.3036 24.3506 21.4927C24.7559 19.5945 26.1787 18.2691 28.2567 17.8761C29.2191 17.7572 30.1938 17.7839 31.1482 17.9553V17.9492ZM22.2087 19.5458V21.1058H17.2636V35.1915H13.7566V21.1027H8.79937V19.5793C8.78383 19.0539 8.79603 18.5281 8.83594 18.0041C8.86031 17.9766 11.8828 17.9766 15.5391 17.9766H22.1904L22.2087 19.5458Z" fill="#007ACC"/>
</g>
<defs>
<clipPath id="clip0_29_164">
<rect width="39" height="39" fill="white"/>
</clipPath>
</defs>
</svg>
