<svg width="92" height="50" viewBox="0 0 92 50" fill="none" xmlns="http://www.w3.org/2000/svg">
<path d="M5.96259 14.9382C6.96884 14.9382 7.97509 15.3694 8.62197 16.2319V15.1538H10.4188V23.4194H9.19697C8.90947 23.4194 8.62197 23.2038 8.62197 22.8444V22.2694C7.97509 23.0601 6.96884 23.5632 5.96259 23.4913C3.73447 23.4194 1.93759 21.5507 1.93759 19.2507V19.1788C1.86572 16.9507 3.59072 15.0101 5.96259 14.9382ZM6.25009 16.5913C4.88447 16.5913 3.73447 17.7413 3.80634 19.1069V19.2507C3.66259 20.6163 4.74072 21.8382 6.10634 21.9101C7.47197 22.0538 8.69384 20.9757 8.76572 19.6101V19.2507C8.83759 17.8851 7.83134 16.7351 6.46572 16.5913H6.25009ZM12.4313 15.0819H14.2282V16.1601C14.8032 15.2976 15.7376 14.7944 16.7438 14.8663C18.6845 14.8663 19.9063 16.2319 19.9063 18.3163V23.2757H18.6845C18.397 23.2757 18.1095 23.0601 18.1095 22.7007V18.6038C18.1095 17.3101 17.4626 16.5194 16.3845 16.5194C15.1626 16.5194 14.2282 17.4538 14.2282 19.2507V23.3476H13.0063C12.7188 23.3476 12.4313 23.0601 12.4313 22.7726V15.0819ZM25.3688 14.8663C26.3751 14.8663 27.3813 15.2976 28.0282 16.0882V10.8413H29.8251V23.2757H28.6751C28.3876 23.2757 28.1001 23.0601 28.1001 22.7007V22.1257C27.4532 22.9163 26.447 23.4194 25.4407 23.4194C23.1407 23.3476 21.4157 21.4069 21.4876 19.1788V19.1069C21.3438 16.9507 23.0688 15.0101 25.3688 14.8663ZM25.7282 16.5194C24.3626 16.5194 23.2126 17.6694 23.2845 19.0351V19.1788C23.1407 20.5444 24.2188 21.7663 25.5845 21.8382C26.9501 21.9819 28.172 20.9038 28.2438 19.5382V19.1788C28.3157 17.8132 27.3095 16.6632 25.9438 16.5194H25.7282ZM31.9813 15.0101H33.7782V16.5194C34.0657 15.5851 35.0001 14.9382 35.9345 14.9382C36.1501 14.9382 36.4376 14.9382 36.6532 15.0101V16.8788C36.3657 16.8069 36.0782 16.7351 35.7188 16.7351C34.7126 16.7351 33.7063 17.5976 33.7063 19.2507V23.2757H32.4126C32.1251 23.2757 31.8376 23.0601 31.8376 22.7007L31.9813 15.0101ZM41.6126 23.5632C39.2407 23.5632 37.372 21.6226 37.372 19.2507C37.372 16.8788 39.3126 15.0101 41.6845 15.0101C44.0563 15.0101 45.9251 16.9507 45.9251 19.3226C45.9251 21.6226 43.9845 23.5632 41.6845 23.5632H41.6126ZM41.6126 21.8382C42.9782 21.8382 44.1282 20.7601 44.1282 19.3226V19.2507C44.1282 17.8851 42.9782 16.7351 41.6126 16.7351C40.247 16.7351 39.097 17.8851 39.097 19.2507C39.0251 20.6163 40.1032 21.7663 41.4688 21.8382H41.6126ZM48.297 13.2851C47.6501 13.2851 47.0751 12.7101 47.0751 12.0632C47.0751 11.4163 47.6501 10.8413 48.297 10.8413C48.9438 10.8413 49.5188 11.4163 49.5188 12.0632C49.5188 12.7101 49.0157 13.2851 48.297 13.2851ZM47.4345 15.0819H49.2313V23.3476H48.0095C47.8657 23.3476 47.722 23.2757 47.5782 23.2038C47.5063 23.0601 47.4345 22.9163 47.4345 22.7726V15.0819ZM54.7657 14.9382C55.8438 14.9382 56.8501 15.3694 57.497 16.2319V10.9132H59.2938V23.3476H58.0001C57.7126 23.3476 57.4251 23.1319 57.4251 22.7726V22.1976C56.7782 22.9882 55.8438 23.4913 54.7657 23.4913C52.4657 23.4194 50.6688 21.5507 50.7407 19.2507V19.1788C50.597 16.9507 52.3938 15.0101 54.7657 14.9382C54.6938 14.8663 54.6938 14.8663 54.7657 14.9382ZM55.0532 16.5194C53.6876 16.5194 52.6095 17.6694 52.6095 19.0351V19.1788C52.4657 20.5444 53.5438 21.7663 54.9095 21.8382C56.2751 21.9101 57.497 20.9038 57.5688 19.5382V19.1788C57.6407 17.8132 56.6345 16.6632 55.2688 16.5194H55.0532ZM21.9188 36.2851V32.2601H20.1938V30.6069H21.9188V28.3069H23.7157V30.6069H26.0876V32.2601H23.7157V35.9976C23.7157 37.0757 24.147 37.4351 25.1532 37.4351C25.5126 37.4351 25.8001 37.3632 26.1595 37.2913V38.9444C25.7282 39.0882 25.2251 39.1601 24.7938 39.1601C23.3563 39.3038 22.0626 38.2976 21.9188 36.8601C21.847 36.5726 21.847 36.4288 21.9188 36.2851ZM50.4532 34.7757C50.4532 32.3319 52.3938 30.3913 54.8376 30.3913C57.2813 30.3913 59.222 32.3319 59.222 34.7757C59.222 37.2194 57.2813 39.1601 54.8376 39.1601C52.4657 39.1601 50.4532 37.2913 50.4532 34.9194V34.7757ZM57.3532 34.7757C57.2813 33.3382 56.1313 32.1882 54.6938 32.2601C53.2563 32.3319 52.1063 33.4819 52.1782 34.9194C52.2501 36.3569 53.4001 37.5069 54.8376 37.4351C56.2032 37.3632 57.2813 36.2851 57.3532 34.9194V34.7757ZM14.7313 36.4288C14.8751 37.2194 15.6657 37.7944 16.4563 37.6507C17.247 37.6507 17.822 37.2913 17.822 36.7882C17.822 36.2851 17.4626 35.9257 16.6001 35.7101L15.2345 35.3507C14.0126 35.1351 13.0782 34.0569 13.0782 32.8351C13.0782 31.3976 14.3001 30.4632 16.1688 30.4632C18.0376 30.4632 19.1876 31.4694 19.4032 32.9788H17.6063C17.4626 32.3319 16.8876 31.9007 16.2407 31.9726C15.522 31.9726 15.0188 32.2601 15.0188 32.8351C15.0188 33.4101 15.3782 33.6257 16.1688 33.8413L17.6063 34.2007C19.1157 34.5601 19.8345 35.4226 19.8345 36.7163C19.8345 38.2976 18.4688 39.1601 16.5282 39.1601C15.5938 39.1601 14.7313 38.9444 14.0126 38.3694C13.3657 37.9382 12.9345 37.2194 12.9345 36.4288H14.7313ZM32.9876 37.7944C32.4845 38.6569 31.5501 39.1601 30.5438 39.0882C28.6032 39.0882 27.4532 37.7226 27.4532 35.5663V30.5351H29.322V35.2069C29.322 36.5726 29.897 37.3632 30.9751 37.3632C32.197 37.3632 32.9876 36.3569 32.9876 34.6319V30.5351H34.8563V38.8726H32.9876V37.7944ZM43.0501 37.7944C42.4032 38.5851 41.4688 39.0882 40.4626 39.0882C38.1626 39.0163 36.3657 37.1476 36.4376 34.9194V34.7757C36.2938 32.5476 38.0907 30.6069 40.3188 30.4632H40.4626C41.4688 30.4632 42.4751 30.8944 43.122 31.7569V26.5101H44.9188V38.9444H43.0501V37.7944ZM38.9532 36.6444C39.3845 37.1476 40.0313 37.4351 40.7501 37.4351C41.397 37.4351 42.0438 37.1476 42.547 36.6444C43.4813 35.5663 43.4813 33.9132 42.547 32.8351C42.1157 32.3319 41.4688 32.0444 40.7501 32.0444C40.1032 32.0444 39.3845 32.2601 38.9532 32.8351C38.0188 33.9851 38.0188 35.5663 38.9532 36.6444ZM47.8657 26.3663C48.5126 26.4382 49.0157 27.0132 49.0157 27.6601C48.9438 28.2351 48.5126 28.7382 47.8657 28.8101C47.4345 28.8101 47.0032 28.5944 46.7876 28.2351C46.572 27.8757 46.572 27.3726 46.7876 27.0132C47.0032 26.6538 47.4345 26.3663 47.8657 26.3663ZM48.8001 30.6069V38.9444H47.0032V30.6069H48.8001Z" fill="black"/>
<path d="M76.472 14.4351H70.0751C68.7813 14.4351 67.7032 15.5132 67.7032 16.8069C67.6313 18.1007 68.6376 19.1069 69.9313 19.1788H76.5438L76.472 14.4351Z" fill="#073042"/>
<path d="M90.9909 35.35H70.0034C68.7097 35.35 67.6315 34.2719 67.6315 32.9781V16.7344C67.6315 18.0281 68.6378 19.1062 70.0034 19.1062H87.5409C87.5409 19.1062 90.9909 18.8188 90.9909 21.4062V35.35Z" fill="#4285F4"/>
<path d="M81.2155 27.0124C82.1498 26.2936 82.3655 24.9999 81.6467 24.0655C81.2873 23.5624 80.6405 23.2749 79.9936 23.203H80.4248V21.9093C80.4248 21.7655 80.353 21.6218 80.2092 21.5499C79.9936 21.4061 79.778 21.478 79.6342 21.6936C79.5623 21.7655 79.5623 21.8374 79.5623 21.9093V23.2749C78.4123 23.4186 77.6217 24.5686 77.7655 25.7186C77.8373 26.2936 78.1248 26.7968 78.6279 27.0843L74.7467 35.3499H77.2623L79.0592 31.5405C79.2748 31.1093 79.8498 30.8936 80.2811 31.1093C80.4967 31.1811 80.6405 31.3249 80.7123 31.5405L82.5811 35.3499H85.1686L81.2155 27.0124ZM79.9217 26.653C79.203 26.653 78.6279 26.078 78.6279 25.3593C78.6279 24.6405 79.203 24.0655 79.9217 24.0655C80.2811 24.0655 80.5686 24.2093 80.7842 24.4249C81.2873 24.928 81.2873 25.7905 80.7842 26.2936C80.6404 26.5093 80.2811 26.653 79.9217 26.653Z" fill="#3870B2"/>
<path d="M75.0345 15.5847H84.0189V17.2378H75.0345V15.5847Z" fill="white"/>
<path d="M79.203 24.0655C79.9218 24.0655 80.4968 24.6405 80.4968 25.3593C80.4968 26.078 79.9218 26.653 79.203 26.653C78.4843 26.653 77.9093 26.078 77.9093 25.3593C77.9093 24.9999 78.053 24.7124 78.2687 24.4249C78.5562 24.2093 78.8437 24.0655 79.203 24.0655ZM79.7062 23.2749V21.9093C79.7062 21.7655 79.6343 21.6218 79.4905 21.5499C79.2749 21.4061 79.0593 21.478 78.9155 21.6936C78.8437 21.7655 78.8437 21.8374 78.8437 21.9093V23.2749C77.6937 23.4186 76.903 24.5686 77.0468 25.7186C77.1187 26.2936 77.4062 26.7968 77.9093 27.0843L73.0218 37.5061C72.8062 37.8655 72.878 38.2968 73.0937 38.6561C73.453 39.1593 74.1718 39.303 74.6749 38.9436C74.8187 38.7999 74.9624 38.6561 75.1062 38.4405L78.3405 31.4686C78.5562 31.0374 79.1312 30.8218 79.5624 31.0374C79.778 31.1093 79.9218 31.253 79.9937 31.4686L83.2999 38.3686C83.5874 38.9436 84.2343 39.1593 84.8093 38.8718C85.3843 38.5843 85.5999 37.9374 85.3124 37.3624L80.2812 26.9405C81.2155 26.2218 81.3593 24.8561 80.6405 23.9218C80.5687 23.7061 80.2093 23.4186 79.7062 23.2749Z" fill="#073042"/>
<path d="M82.7247 17.0226C82.3653 17.0226 82.0778 16.7351 82.0778 16.4476C82.0778 16.3038 82.1497 16.0882 82.2935 16.0163C82.5091 15.8007 82.9403 15.8007 83.156 16.0163C83.2997 16.1601 83.2997 16.3038 83.3716 16.4476C83.2997 16.7351 83.0841 17.0226 82.7247 17.0226ZM75.9685 17.0226C75.6091 17.0226 75.3216 16.7351 75.3216 16.4476C75.3216 16.3038 75.3935 16.0882 75.5372 16.0163C75.7528 15.7288 76.1122 15.7288 76.3997 15.9444C76.6872 16.1601 76.6872 16.5913 76.4716 16.8069L76.3997 16.8788C76.256 16.9507 76.1122 17.0226 75.9685 17.0226ZM82.9403 13.3569L84.1622 11.2726C84.2341 11.1288 84.1622 10.9851 84.0903 10.9132C84.0185 10.8413 83.8747 10.9132 83.8028 10.9851L82.5091 13.1413C80.4966 12.2788 78.1966 12.2788 76.256 13.1413L75.0341 10.9851C74.9622 10.9132 74.8903 10.8413 74.8185 10.8413C74.7466 10.8413 74.6747 10.9132 74.6028 10.9851C74.531 11.0569 74.531 11.1288 74.6028 11.2726L75.8247 13.3569C73.6685 14.5069 72.3028 16.7351 72.0872 19.1069H86.7497C86.4622 16.6632 85.0966 14.5069 82.9403 13.3569Z" fill="#3DDC84"/>
<path d="M88.906 23.634H87.9716C87.8997 23.634 87.8997 23.7059 87.8997 23.7778V39.0153C87.8997 39.0872 87.9716 39.159 88.0435 39.159H89.0497C90.1997 39.159 91.1341 38.2247 91.1341 37.0747V21.4778C91.0622 22.6997 90.1278 23.634 88.906 23.634Z" fill="#073042"/>
</svg>
