<svg width="74" height="50" viewBox="0 0 74 50" fill="none" xmlns="http://www.w3.org/2000/svg">
<g clip-path="url(#clip0_87_7)">
<path d="M21.8208 32.994L24.05 40.2271C24.5509 41.8693 24.7598 43.0158 24.6761 43.6692C25.8953 40.4039 26.7472 36.8455 27.2318 32.994H29.9123C28.7596 39.2643 27.2397 43.8206 25.3526 46.663C23.8824 48.8534 22.2718 49.9485 20.518 49.9485C20.0503 49.9485 19.4738 49.8073 18.7897 49.5268V48.0153C19.124 48.0643 19.5161 48.0905 19.9671 48.0905C20.7851 48.0903 21.4449 47.8639 21.9465 47.4111C22.5472 46.8597 22.8479 46.2399 22.8479 45.553C22.8479 45.0839 22.6134 44.1213 22.1465 42.6652L19.0405 32.994H21.8208ZM4.75972 28.5483L8.8428 41.0062H8.86801L12.9762 28.5483H16.3326C17.0675 34.7265 17.5016 40.3794 17.6349 45.5033H14.8051C14.7054 40.7136 14.4299 36.2093 13.9787 31.9904H13.9541L9.64494 45.5033H7.48994L3.20686 31.9904H3.18165C2.86407 36.0422 2.66369 40.5465 2.5805 45.5033H0C0.166761 39.4746 0.584095 33.8235 1.252 28.5483H4.75972Z" fill="#00758F"/>
<path d="M50.5008 28.2968C54.8929 28.2968 57.089 31.1028 57.089 36.7121C57.089 39.7602 56.4286 42.0626 55.109 43.618C54.8711 43.9023 54.6082 44.1478 54.3315 44.3754L57.4396 45.9122L57.4366 45.912L56.333 47.8177L52.2853 45.456C51.6143 45.6547 50.8764 45.754 50.0717 45.754C47.9152 45.754 46.3043 45.1255 45.2392 43.8701C44.0702 42.4812 43.486 40.2949 43.486 37.3146C43.486 34.2837 44.1453 31.99 45.4653 30.4326C46.6676 29.0079 48.3464 28.2968 50.5008 28.2968ZM37.051 28.3213C38.6208 28.3213 40.0481 28.7413 41.3338 29.5784L40.6808 31.0336C39.5807 30.566 38.496 30.3311 37.4264 30.3311C36.5585 30.3311 35.8897 30.54 35.4235 30.9604C34.9548 31.377 34.6648 31.9131 34.6648 32.5667C34.6648 33.571 35.3803 34.4419 36.7013 35.1777C37.1341 35.4143 37.5654 35.6536 37.9951 35.8956L38.0937 35.951L38.1431 35.9788L38.2418 36.0343L38.2911 36.0621L38.3897 36.1177C39.3897 36.6814 40.3307 37.2195 40.3307 37.2195C41.6516 38.1572 42.31 39.1569 42.31 40.8034C42.31 42.2414 41.7831 43.4218 40.7327 44.3454C39.6815 45.2649 38.2694 45.7259 36.5009 45.7259C34.8469 45.7259 33.2439 45.1953 31.6912 44.1428L32.4175 42.6864C33.7538 43.3562 34.9629 43.6907 36.0487 43.6907C37.0671 43.6907 37.8642 43.4633 38.4408 43.0143C39.0163 42.562 39.3612 41.9312 39.3612 41.1314C39.3612 40.1247 38.6609 39.2641 37.3762 38.5421C36.9741 38.32 36.5732 38.0957 36.1735 37.8692L36.0751 37.8135C35.8943 37.7113 35.7122 37.6079 35.5338 37.5066L35.4371 37.4516C34.5697 36.9582 33.8197 36.5271 33.8197 36.5271C32.5354 35.5877 31.8914 34.5798 31.8914 32.9191C31.8914 31.5456 32.3717 30.4354 33.3307 29.5909C34.2921 28.7445 35.5322 28.3213 37.051 28.3213ZM62.2508 28.5482V43.4175H67.5857V45.5031H59.545V28.5483L62.2508 28.5482ZM70.5502 43.4239V43.7764H69.9636V45.5013H69.5152V43.7764H68.9059V43.4239H70.5502ZM71.6332 43.4239L72.1964 44.84L72.7138 43.4239H73.3494V45.5013H72.9268V43.9203L72.338 45.5013H72.0332L71.4434 43.9203H71.4208V45.5013H71.0209V43.4239H71.6332ZM50.2246 30.3819C47.6364 30.3819 46.3415 32.518 46.3415 36.7873C46.3415 39.2328 46.6846 41.0062 47.3696 42.1115C48.004 43.1344 48.9975 43.6448 50.3504 43.6448C52.9386 43.6448 54.2333 41.4921 54.2333 37.1887C54.2333 34.7774 53.8902 33.0192 53.2061 31.9134C52.571 30.8927 51.5779 30.3819 50.2247 30.3819" fill="#F29111"/>
<path d="M43.4409 1.05082C44.2994 -1.05891 47.3016 0.53879 48.4666 1.27575C48.7521 1.46013 49.0797 1.84967 49.407 1.99365C49.9178 2.01371 50.4281 2.05368 50.9397 2.07503C51.8993 2.30053 52.7981 2.48477 53.5543 2.91543C57.0683 4.9849 59.3558 7.09377 61.4611 10.5771C61.911 11.315 62.1358 12.1134 62.5032 12.9118C63.0133 14.1019 63.5863 15.3512 64.1783 16.4765C64.4433 17.0101 64.6484 17.6033 65.0164 18.0539C65.1601 18.2599 65.5683 18.3207 65.8122 18.4437C66.4867 18.7929 67.3039 19.0579 67.9383 19.4676C69.123 20.2063 70.2684 21.0865 71.3096 21.9877C71.6977 22.3355 71.9622 22.8279 72.332 23.1959V23.3815C72.0038 23.4822 71.6767 23.5854 71.3493 23.6681C70.6343 23.8517 70.0009 23.8102 69.3072 23.994C68.8786 24.1183 68.3463 24.2824 67.8968 24.3241L67.9383 24.3659C68.2028 25.1216 69.6337 25.7362 70.2882 26.1882C71.083 26.7619 71.8195 27.4576 72.4124 28.2566C72.6171 28.4604 72.8218 28.646 73.0255 28.8493C73.1679 29.0553 73.2081 29.3218 73.3522 29.5054V29.5676C73.1926 29.5113 73.0778 29.4038 72.9691 29.2915L72.9042 29.2238C72.8393 29.1564 72.7738 29.0902 72.6992 29.0357C72.2482 28.7276 71.8003 28.3592 71.3493 28.0728C70.574 27.5808 69.6747 27.2953 68.8786 26.8014C68.4284 26.5147 67.9993 26.1882 67.5703 25.8602C67.1813 25.5726 66.7529 25.0205 66.5085 24.6107C66.3645 24.3844 66.3448 24.1183 66.1803 23.9546C66.2097 23.6811 66.4602 23.5999 66.7131 23.5331L66.7713 23.5178C66.8585 23.4951 66.9439 23.4725 67.0184 23.4426C68.0806 22.9916 69.3469 22.8279 70.9821 22.8689C70.9205 22.4583 69.8988 21.9467 69.5725 21.7009C68.9178 21.229 68.2245 20.7365 67.53 20.307C67.1619 20.0821 66.5277 19.9179 66.12 19.7341C65.5683 19.5086 64.342 19.2833 64.0363 18.8538C63.517 18.1767 63.1439 17.3691 62.7817 16.5533L62.6832 16.3307L62.5843 16.1082C62.1562 15.1258 61.6244 14.1016 61.1954 13.0958C60.971 12.6051 60.868 12.1744 60.6223 11.7038C59.1313 8.81583 56.9246 6.39793 54.2491 4.69751C53.3699 4.14422 52.3895 3.63219 51.3073 3.28419C50.694 3.09895 49.9579 3.20139 49.3044 3.05927H48.8744C48.5073 2.95583 48.2009 2.56672 47.9145 2.36156C47.282 1.93205 46.6484 1.64366 45.892 1.33721C45.6269 1.21429 44.8701 0.928043 44.6059 1.1534C44.4423 1.19452 44.3593 1.25627 44.3191 1.42045C44.1563 1.66543 44.2994 2.03449 44.4007 2.26042C44.7076 2.91514 45.1363 3.30425 45.5254 3.85754C45.8715 4.34823 46.3014 4.90152 46.5469 5.43504C47.0764 6.58189 47.3229 7.85251 47.8136 8.99921C47.9956 9.43044 48.2834 9.92112 48.5483 10.3101C48.7728 10.6188 49.1809 10.842 49.3044 11.2329C49.5506 11.6426 48.936 12.9946 48.7937 13.424C48.2615 15.1041 48.3646 17.4394 48.9775 18.8957L49.0102 18.9725L49.0428 19.0503C49.2666 19.5837 49.5062 20.158 50.1011 20.3072C50.1421 20.2665 50.1011 20.2878 50.1824 20.2665C50.3263 19.1393 50.3669 18.0538 50.7554 17.1718C50.9799 16.6204 51.4282 16.2306 51.7355 15.7804C51.9404 15.903 51.9404 16.2728 52.0624 16.5175C52.3283 17.1522 52.6139 17.848 52.9417 18.4846C53.6144 19.7954 54.3715 21.0663 55.2292 22.213C55.5164 22.6226 55.924 23.0735 56.2917 23.4424C56.4554 23.5852 56.6388 23.6678 56.7619 23.8516H56.802V23.9135C56.1891 23.6875 55.8005 23.0534 55.3117 22.6832C54.3914 21.9874 53.2892 20.9424 52.6549 19.9397C52.3895 19.3641 52.1027 18.8123 51.8167 18.2396V18.1982C51.6945 18.3618 51.7355 18.5242 51.6743 18.7718C51.409 19.7954 51.6133 20.9632 50.694 21.3314C49.6519 21.7626 48.8745 20.6355 48.5483 20.1234C47.5059 18.4234 47.2204 15.5555 47.9554 13.2405C48.1188 12.728 48.141 12.1134 48.4261 11.7042C48.3645 11.3343 48.0794 11.2332 47.9145 11.0065C47.6285 10.6191 47.3837 10.1678 47.1597 9.7376C46.7297 8.8972 46.4236 7.89305 46.0971 6.99177C45.9536 6.62372 45.9125 6.25424 45.7694 5.90581C45.5252 5.37401 45.0752 4.84049 44.7281 4.37C44.258 3.69379 42.889 2.38319 43.4409 1.05082ZM50.1417 5.06441C50.1963 5.11914 50.2622 5.16699 50.3304 5.21413L50.4126 5.27057C50.5222 5.3465 50.6284 5.42645 50.6934 5.53533C50.7966 5.67945 50.8157 5.82172 50.9392 5.96613C50.9392 6.45853 50.7965 6.7859 50.5084 6.98991C50.5084 6.98991 50.4888 7.0114 50.4686 7.03145C50.3053 6.70323 50.1622 6.37673 49.9977 6.04879C49.7951 5.76255 49.5087 5.53547 49.3437 5.2084H49.304V5.16728C49.5506 5.10639 49.7951 5.06441 50.1417 5.06441Z" fill="#00758F"/>
</g>
<defs>
<clipPath id="clip0_87_7">
<rect width="73.3521" height="49.9998" fill="white"/>
</clipPath>
</defs>
</svg>
