<svg width="74" height="39" viewBox="0 0 74 39" fill="none" xmlns="http://www.w3.org/2000/svg">
<g clip-path="url(#clip0_87_2)">
<path d="M36.6761 38.5672C56.9317 38.5672 73.3521 29.9336 73.3521 19.2836C73.3521 8.63356 56.9317 0 36.6761 0C16.4204 0 0 8.63356 0 19.2836C0 29.9336 16.4204 38.5672 36.6761 38.5672Z" fill="url(#paint0_radial_87_2)"/>
<path d="M36.676 37.1347C56.1404 37.1347 71.9194 29.1426 71.9194 19.2838C71.9194 9.425 56.1404 1.43286 36.676 1.43286C17.2116 1.43286 1.43262 9.425 1.43262 19.2838C1.43262 29.1426 17.2116 37.1347 36.676 37.1347Z" fill="#6181B6"/>
<path d="M43.8108 25.0718L45.5586 16.0747C45.9598 14.0403 45.6159 12.5217 44.5844 11.5761C43.5816 10.6592 41.8624 10.2008 39.3409 10.2008H36.3037L37.1633 5.73089C37.1919 5.55897 37.1633 5.38705 37.0486 5.24378C36.934 5.10052 36.7908 5.04321 36.6189 5.04321H32.4355C32.149 5.04321 31.9197 5.24379 31.8624 5.50166L30 15.0432C29.828 13.9544 29.4269 13.0374 28.7392 12.2925C27.5071 10.8885 25.5874 10.1721 22.9799 10.1721H14.9284C14.6419 10.1721 14.4126 10.3727 14.3553 10.6306L10.6018 30.0001C10.5731 30.172 10.6018 30.344 10.7164 30.4872C10.831 30.6305 10.9743 30.6878 11.1462 30.6878H15.3582C15.6447 30.6878 15.8739 30.4872 15.9313 30.2294L16.8482 25.5589H19.9714C21.6046 25.5589 23.0086 25.387 24.0688 25.0431C25.1862 24.6706 26.1891 24.0689 27.0773 23.238C27.7937 22.579 28.3954 21.834 28.8538 21.0317L28.1089 24.8999C28.0802 25.0718 28.1089 25.2437 28.2235 25.387C28.3381 25.5302 28.4813 25.5875 28.6533 25.5875H32.8366C33.1232 25.5875 33.3524 25.387 33.4097 25.1291L35.4727 14.5274H38.338C39.5701 14.5274 39.914 14.7566 40.0286 14.8713C40.1145 14.9572 40.2865 15.3011 40.0859 16.3612L38.424 24.9285C38.3953 25.1004 38.424 25.2724 38.5386 25.4156C38.6532 25.5589 38.7965 25.6162 38.9684 25.6162H43.2664C43.5243 25.5302 43.7535 25.3297 43.8108 25.0718ZM24.4413 17.622C24.1834 18.9687 23.6963 19.9429 22.9799 20.4873C22.2636 21.0317 21.0888 21.3182 19.5416 21.3182H17.6791L19.0258 14.3841H21.4327C23.2092 14.3841 23.9255 14.7566 24.212 15.0718C24.5845 15.5303 24.6705 16.4185 24.4413 17.622ZM61.6904 12.2925C60.4583 10.8885 58.5385 10.1721 55.9311 10.1721H47.8222C47.5357 10.1721 47.3065 10.3727 47.2492 10.6306L43.4956 29.9715C43.467 30.1434 43.4956 30.3153 43.6102 30.4586C43.7248 30.6018 43.8681 30.6592 44.04 30.6592H48.252C48.5386 30.6592 48.7678 30.4586 48.8251 30.2007L49.742 25.5302H52.8652C54.4984 25.5302 55.9024 25.3583 56.9626 25.0145C58.0801 24.642 59.0829 24.0403 59.9712 23.2093C60.7162 22.5217 61.3465 21.748 61.805 20.9171C62.2634 20.0861 62.6073 19.1692 62.8079 18.1664C63.295 15.6735 62.9225 13.7251 61.6904 12.2925ZM57.3064 17.622C57.0486 18.9687 56.5615 19.9429 55.8451 20.4873C55.1288 21.0317 53.954 21.3182 52.4068 21.3182H50.5443L51.891 14.3841H54.2979C56.0744 14.3841 56.7907 14.7566 57.0772 15.0718C57.4784 15.5303 57.5643 16.4185 57.3064 17.622Z" fill="white"/>
<path d="M21.4325 13.8108C23.0371 13.8108 24.0973 14.0973 24.6417 14.699C25.1861 15.3007 25.3007 16.3036 25.0142 17.7363C24.7276 19.2262 24.1546 20.315 23.3236 20.9454C22.4927 21.5758 21.2319 21.891 19.5414 21.891H16.9913L18.5672 13.8108H21.4325ZM11.1747 30.0858H15.3867L16.3896 24.9569H19.9999C21.6044 24.9569 22.8938 24.7849 23.9253 24.4411C24.9569 24.0973 25.8738 23.5529 26.7334 22.7506C27.4497 22.0915 28.0228 21.3752 28.4525 20.6016C28.8823 19.8279 29.1975 18.9683 29.3694 18.0228C29.8279 15.7305 29.4841 13.954 28.3666 12.6646C27.2491 11.3753 25.4726 10.7449 23.0371 10.7449H14.9282L11.1747 30.0858ZM32.464 5.61597H36.6474L35.6445 10.7449H39.3694C41.719 10.7449 43.3235 11.146 44.2118 11.977C45.1 12.8079 45.3579 14.126 45.0141 15.9598L43.2662 24.9569H39.0256L40.6875 16.3896C40.888 15.4154 40.8021 14.7563 40.4869 14.4125C40.1717 14.0687 39.4554 13.8681 38.3952 13.8681H35.0428L32.8938 24.9569H28.7104L32.464 5.61597ZM54.2977 13.8108C55.9023 13.8108 56.9625 14.0973 57.5069 14.699C58.0513 15.3007 58.1659 16.3036 57.8794 17.7363C57.5928 19.2262 57.0198 20.315 56.1888 20.9454C55.3579 21.5758 54.0971 21.891 52.4066 21.891H49.8565L51.4324 13.8108H54.2977ZM44.0399 30.0858H48.2519L49.2547 24.9569H52.8651C54.4696 24.9569 55.759 24.7849 56.7905 24.4411C57.8221 24.0973 58.739 23.5529 59.5985 22.7506C60.3149 22.0915 60.8879 21.3752 61.3177 20.6016C61.7475 19.8279 62.0627 18.9683 62.2346 18.0228C62.6931 15.7305 62.3493 13.954 61.2318 12.6646C60.1143 11.3753 58.3378 10.7449 55.9023 10.7449H47.7934L44.0399 30.0858Z" fill="#000004"/>
</g>
<defs>
<radialGradient id="paint0_radial_87_2" cx="0" cy="0" r="1" gradientUnits="userSpaceOnUse" gradientTransform="translate(22.0204 6.78149) scale(48.1647 48.1647)">
<stop stop-color="white"/>
<stop offset="0.5" stop-color="#4C6B97"/>
<stop offset="1" stop-color="#231F20"/>
</radialGradient>
<clipPath id="clip0_87_2">
<rect width="73.3521" height="38.6818" fill="white"/>
</clipPath>
</defs>
</svg>
