<svg width="39" height="39" viewBox="0 0 39 39" fill="none" xmlns="http://www.w3.org/2000/svg">
<path d="M36.4212 7.49049L20.4044 36.1311C20.3292 36.2658 20.2195 36.3781 20.0866 36.4565C19.9537 36.5348 19.8024 36.5765 19.6481 36.5771C19.4938 36.5777 19.3422 36.5373 19.2086 36.46C19.0751 36.3827 18.9646 36.2713 18.8883 36.1372L2.55458 7.49293C2.47246 7.3492 2.43303 7.18504 2.44093 7.0197C2.44883 6.85436 2.50373 6.6947 2.59918 6.55946C2.69463 6.42422 2.82667 6.31901 2.97981 6.25617C3.13295 6.19334 3.30083 6.17549 3.46376 6.20471L19.4976 9.07121C19.5996 9.08994 19.7041 9.08994 19.806 9.07121L35.5047 6.20958C35.667 6.17993 35.8344 6.19702 35.9873 6.25887C36.1403 6.32073 36.2725 6.42479 36.3686 6.55892C36.4646 6.69306 36.5206 6.85174 36.5299 7.01646C36.5392 7.18118 36.5015 7.34638 36.4212 7.49049Z" fill="url(#paint0_linear_29_171)"/>
<path d="M27.1342 2.44612L15.2831 4.76784C15.1885 4.78695 15.1028 4.83671 15.0394 4.90941C14.9759 4.98212 14.9382 5.07372 14.9321 5.17003L14.2033 17.4843C14.1993 17.5518 14.2111 17.6194 14.2377 17.6816C14.2644 17.7438 14.3052 17.7989 14.3569 17.8426C14.4086 17.8862 14.4698 17.9172 14.5356 17.9331C14.6014 17.949 14.67 17.9493 14.7359 17.934L18.035 17.1723C18.1061 17.1559 18.1802 17.1576 18.2504 17.1773C18.3207 17.1969 18.3848 17.234 18.437 17.2849C18.4892 17.3359 18.5277 17.3992 18.5491 17.469C18.5704 17.5387 18.5738 17.6127 18.5591 17.6842L17.5792 22.4848C17.5641 22.5587 17.5685 22.6353 17.5919 22.707C17.6153 22.7787 17.6569 22.8431 17.7127 22.8939C17.7685 22.9446 17.8365 22.98 17.9101 22.9965C17.9838 23.0131 18.0604 23.0102 18.1325 22.9882L20.1703 22.369C20.2425 22.3469 20.3193 22.344 20.3931 22.3606C20.4668 22.3772 20.5349 22.4127 20.5908 22.4636C20.6466 22.5145 20.6882 22.5791 20.7115 22.651C20.7348 22.7229 20.739 22.7996 20.7236 22.8736L19.1648 30.414C19.0673 30.8857 19.695 31.1428 19.957 30.7394L20.1313 30.4688L29.7899 11.1943C29.8261 11.1217 29.8414 11.0404 29.8338 10.9595C29.8263 10.8787 29.7963 10.8016 29.7472 10.737C29.6981 10.6723 29.632 10.6227 29.5561 10.5936C29.4803 10.5646 29.3979 10.5574 29.3182 10.5727L25.9216 11.2272C25.8484 11.2412 25.773 11.2362 25.7023 11.2127C25.6317 11.1892 25.5683 11.1479 25.5182 11.0929C25.468 11.0379 25.4328 10.9709 25.416 10.8984C25.3991 10.8259 25.4012 10.7503 25.4219 10.6788L27.6376 2.99334C27.6584 2.92161 27.6605 2.84571 27.6435 2.77295C27.6266 2.7002 27.5912 2.63303 27.5407 2.57793C27.4903 2.52283 27.4265 2.48164 27.3555 2.45834C27.2845 2.43505 27.2087 2.43042 27.1354 2.4449" fill="url(#paint1_linear_29_171)"/>
<defs>
<linearGradient id="paint0_linear_29_171" x1="2.15546" y1="5.18079" x2="22.0883" y2="32.2512" gradientUnits="userSpaceOnUse">
<stop stop-color="#41D1FF"/>
<stop offset="1" stop-color="#BD34FE"/>
</linearGradient>
<linearGradient id="paint1_linear_29_171" x1="18.5761" y1="3.07595" x2="22.1819" y2="27.8111" gradientUnits="userSpaceOnUse">
<stop stop-color="#FFEA83"/>
<stop offset="0.083" stop-color="#FFDD35"/>
<stop offset="1" stop-color="#FFA800"/>
</linearGradient>
</defs>
</svg>
